PathFileType	4	(X/Y/Z)	/Users/itak/Documents/Research/Walk-IL/dataset/trc/00185_00008.trc
DataRate	CameraRate	NumFrames	NumMarkers	Units	OrigDataRate	OrigDataStartFrame	OrigNumFrames
100.000000	100.000000	4	53	mm	100.000000	495	793
Frame#	Time	RPSI			LPSI			L3			STRN			T10			C7			CLAV			RBAK			LBAK			LSHO			LUPA			LAEL			LAOL			LWTS			LWPS			LFRA			LIFD			LHPS			LHTS			RSHO			RUPA			RAEL			RAOL			RWTS			RWPS			RFRA			RIFD			RHTS			RHPS			RBHD			LFHD			RFHD			LBHD			LHIP			RHIP			RASI			LASI			LKNE			LTHI			LANK			LTIP			LTOE			LMT1			LMT5			LHEE			RKNE			RTHI			RANK			RTIP			RTOE			RMT1			RMT5			RHEE			
		X1	Y1	Z1	X2	Y2	Z2	X3	Y3	Z3	X4	Y4	Z4	X5	Y5	Z5	X6	Y6	Z6	X7	Y7	Z7	X8	Y8	Z8	X9	Y9	Z9	X10	Y10	Z10	X11	Y11	Z11	X12	Y12	Z12	X13	Y13	Z13	X14	Y14	Z14	X15	Y15	Z15	X16	Y16	Z16	X17	Y17	Z17	X18	Y18	Z18	X19	Y19	Z19	X20	Y20	Z20	X21	Y21	Z21	X22	Y22	Z22	X23	Y23	Z23	X24	Y24	Z24	X25	Y25	Z25	X26	Y26	Z26	X27	Y27	Z27	X28	Y28	Z28	X29	Y29	Z29	X30	Y30	Z30	X31	Y31	Z31	X32	Y32	Z32	X33	Y33	Z33	X34	Y34	Z34	X35	Y35	Z35	X36	Y36	Z36	X37	Y37	Z37	X38	Y38	Z38	X39	Y39	Z39	X40	Y40	Z40	X41	Y41	Z41	X42	Y42	Z42	X43	Y43	Z43	X44	Y44	Z44	X45	Y45	Z45	X46	Y46	Z46	X47	Y47	Z47	X48	Y48	Z48	X49	Y49	Z49	X50	Y50	Z50	X51	Y51	Z51	X52	Y52	Z52	X53	Y53	Z53	

496	4.95	-788.9844360351562	1047.453857421875	-491.2787780761719	-699.160400390625	1045.015991210938	-406.0280456542969	-742.7539672851562	1084.192016601562	-451.0885314941406	-919.2369384765625	1298.048095703125	-259.9581298828125	-704.0130615234375	1249.701293945312	-472.0007019042969	-747.4718017578125	1516.928344726562	-404.504638671875	-893.6270751953125	1412.646362304688	-268.71923828125	-774.6175537109375	1347.326171875	-537.2393188476562	-671.79150390625	1493.907958984375	-338.0081481933594	-674.400634765625	1478.535034179688	-228.2799377441406	-594.10302734375	1349.193115234375	-202.4694671630859	-576.5283813476562	1134.570434570312	-194.3888549804688	-595.3013305664062	1121.256713867188	-280.0444641113281	-634.0701904296875	883.6377563476562	-155.5509490966797	-547.620361328125	883.69384765625	-188.5736846923828	-559.3029174804688	1026.634765625	-183.8377227783203	-619.10595703125	698.2095336914062	-186.0926361083984	-550.2816772460938	811.7427368164062	-183.7425537109375	-610.2516479492188	804.4603881835938	-144.4861907958984	-916.8343505859375	1502.1923828125	-490.4856872558594	-948.2500610351562	1440.791381835938	-557.3602905273438	-980.2604370117188	1165.360961914062	-644.7908935546875	-917.8242797851562	1144.741088867188	-572.2130737304688	-1099.067993164062	940.8348999023438	-562.1074829101562	-1070.172119140625	926.8770141601562	-645.1695556640625	-1017.154113769531	1095.522827148438	-649.9024658203125	-1109.72705078125	751.7601928710938	-547.2326049804688	-1133.374877929688	848.316162109375	-559.5581665039062	-1098.277221679688	845.0057983398438	-632.169677734375	-879.1138305664062	1682.969116210938	-382.9726257324219	-818.2342529296875	1696.542358398438	-173.8156585693359	-937.7451782226562	1707.224731445312	-218.7122497558594	-748.8335571289062	1680.531494140625	-339.4220275878906	-682.5001831054688	983.718505859375	-250.3058319091797	-986.7615356445312	1019.426940917969	-462.1725463867188	-999.3245849609375	1048.957763671875	-365.47216796875	-805.7472534179688	1030.256103515625	-194.3848419189453	-782.8273315429688	483.0076293945312	-186.0772399902344	-755.2112426757812	629.9932250976562	-191.4480285644531	-569.89990234375	219.7466735839844	-525.9111328125	-672.3878173828125	342.0299987792969	-340.1777954101562	-671.2918090820312	59.15763854980469	-424.9129333496094	-687.365478515625	92.63972473144531	-481.1277465820312	-576.4613037109375	133.8782806396484	-451.0274047851562	-607.2818603515625	258.9689636230469	-590.4390869140625	-1054.412963867188	524.7189331054688	-382.1855773925781	-1056.580078125	798.0923461914062	-406.6463623046875	-1022.849670410156	28.05618858337402	-466.7647094726562	-1059.840454101562	399.4737548828125	-365.9177856445312	-1125.404296875	51.15437698364258	-270.8291931152344	-1058.710693359375	51.69626617431641	-284.796142578125	-1116.509521484375	27.96449089050293	-397.5306091308594	-937.8211669921875	35.71749496459961	-464.1704406738281	
497	4.96	-796.0826416015625	1048.460327148438	-486.9248352050781	-705.5036010742188	1046.15869140625	-402.7223510742188	-749.761962890625	1085.390747070312	-447.3796997070312	-924.2058715820312	1299.022094726562	-253.7249755859375	-712.0546264648438	1251.207275390625	-469.0623779296875	-755.205810546875	1518.230102539062	-400.7601623535156	-898.8522338867188	1413.712524414062	-262.6073608398438	-784.1832275390625	1348.7890625	-533.1292724609375	-678.3941650390625	1495.41650390625	-335.6127319335938	-679.0496826171875	1480.041015625	-226.0250549316406	-597.4533081054688	1351.289184570312	-201.7538146972656	-578.06298828125	1136.697387695312	-193.7887268066406	-598.2694702148438	1123.404907226562	-279.1916809082031	-634.6849365234375	885.9777221679688	-153.3109893798828	-548.8656005859375	885.7686157226562	-187.8404998779297	-560.3125610351562	1028.801879882812	-183.3861389160156	-620.8360595703125	700.4605712890625	-183.2268371582031	-551.5853271484375	813.8099975585938	-182.6831817626953	-610.8541870117188	806.8758544921875	-142.3155975341797	-925.85595703125	1503.577514648438	-483.8979797363281	-958.4118041992188	1442.335083007812	-550.3385009765625	-993.2384643554688	1167.238647460938	-637.9078979492188	-929.40185546875	1146.211059570312	-566.65771484375	-1112.002319335938	943.7191772460938	-552.372802734375	-1084.661010742188	929.2538452148438	-635.98876953125	-1030.710693359375	1097.594604492188	-642.1558227539062	-1124.003173828125	754.851318359375	-536.6638793945312	-1147.119506835938	851.5958251953125	-548.9341430664062	-1113.219360351562	847.6857299804688	-622.2083740234375	-887.0300903320312	1683.923095703125	-376.5669860839844	-823.0167846679688	1697.189819335938	-168.3281402587891	-943.2803344726562	1707.417724609375	-211.3431701660156	-756.0850219726562	1681.966430664062	-335.0205078125	-686.9564819335938	985.2891235351562	-246.6481323242188	-993.3226928710938	1020.023376464844	-456.0751037597656	-1005.546325683594	1049.903930664062	-359.272216796875	-809.9216918945312	1031.673095703125	-190.474609375	-793.6531372070312	485.3937072753906	-175.5881500244141	-763.9317626953125	631.9871826171875	-182.9761962890625	-588.2424926757812	215.8523254394531	-515.3948974609375	-687.0751953125	341.6922607421875	-330.0854187011719	-692.2142944335938	60.19366455078125	-409.6915588378906	-708.1438598632812	92.45380401611328	-466.76953125	-596.0081176757812	131.8221740722656	-438.6458740234375	-625.5722045898438	254.5045013427734	-580.4088134765625	-1056.648193359375	524.234619140625	-379.9778442382812	-1061.578857421875	797.9905395507812	-401.169921875	-1022.901550292969	28.18581390380859	-466.6990966796875	-1061.1064453125	398.9277038574219	-364.3540649414062	-1125.469360351562	50.30522537231445	-270.3267517089844	-1058.72607421875	51.36962127685547	-284.4970397949219	-1116.516357421875	27.94944000244141	-397.5186462402344	-937.880126953125	35.94842910766602	-464.1681213378906	
498	4.97	-803.007568359375	1049.456909179688	-482.5360107421875	-711.6727905273438	1047.218994140625	-399.4292602539062	-756.6331176757812	1086.504028320312	-443.6260070800781	-929.0642700195312	1299.9306640625	-247.4186096191406	-720.0311279296875	1252.584350585938	-466.0046081542969	-762.7529907226562	1519.416381835938	-396.9136657714844	-903.93359375	1414.687377929688	-256.4540405273438	-793.5985717773438	1350.112548828125	-528.880615234375	-684.8885498046875	1496.78076171875	-333.1185913085938	-683.5978393554688	1481.429077148438	-223.6902313232422	-600.7413940429688	1353.252807617188	-201.0415191650391	-579.6316528320312	1138.649536132812	-193.2427520751953	-601.2882690429688	1125.404052734375	-278.3740844726562	-635.5299682617188	888.2821655273438	-150.9574279785156	-550.4209594726562	887.645751953125	-187.1031494140625	-561.425537109375	1030.804443359375	-182.9841003417969	-623.1162719726562	702.6492919921875	-180.0208129882812	-553.3077392578125	815.6846313476562	-181.5436706542969	-611.8099365234375	809.2446899414062	-139.9734344482422	-934.62109375	1504.826904296875	-477.2109680175781	-968.3211059570312	1443.773193359375	-543.208984375	-1006.041931152344	1169.035888671875	-630.8486938476562	-940.9140625	1147.5546875	-560.904541015625	-1124.734008789062	946.4993896484375	-542.5545043945312	-1098.95654296875	931.5794067382812	-626.69482421875	-1044.082763671875	1099.596313476562	-634.2532348632812	-1138.005249023438	757.838134765625	-526.035888671875	-1160.60546875	854.7608642578125	-538.240234375	-1127.916137695312	850.2968139648438	-612.1422119140625	-894.7288818359375	1684.78173828125	-370.0786437988281	-827.619384765625	1697.73046875	-162.7944183349609	-948.5873413085938	1707.511596679688	-203.9276275634766	-763.1774291992188	1683.288940429688	-330.5198364257812	-691.2451782226562	986.7207641601562	-243.0597686767578	-999.7403564453125	1020.548278808594	-449.9041748046875	-1011.613708496094	1050.677734375	-352.99755859375	-813.985595703125	1032.880859375	-186.5126953125	-803.8953857421875	487.837890625	-165.2117767333984	-772.1028442382812	633.9801635742188	-174.6189880371094	-606.8809814453125	210.9015045166016	-504.2858581542969	-701.54052734375	340.8868408203125	-319.701904296875	-713.2343139648438	60.68429183959961	-393.4283752441406	-729.040771484375	91.63188171386719	-451.3392944335938	-615.6607666015625	128.9885864257812	-425.5122375488281	-644.2074584960938	248.8751525878906	-569.7977294921875	-1058.697265625	523.7572021484375	-377.9588317871094	-1066.398071289062	797.7998657226562	-395.868896484375	-1022.943786621094	28.32858276367188	-466.6352233886719	-1062.248901367188	398.4074096679688	-362.9460754394531	-1125.518432617188	49.45983123779297	-269.8105773925781	-1058.718383789062	51.03807830810547	-284.1802673339844	-1116.525512695312	27.95264434814453	-397.5090026855469	-937.9671020507812	36.21622085571289	-464.1983337402344	
499	4.98	-809.8118896484375	1050.432495117188	-478.1276550292969	-717.665283203125	1048.204467773438	-396.1713562011719	-763.398193359375	1087.5341796875	-439.8440246582031	-933.8008422851562	1300.739624023438	-241.0352783203125	-727.9631958007812	1253.8330078125	-462.8291015625	-770.125	1520.48193359375	-392.9500732421875	-908.8702392578125	1415.54541015625	-250.2431182861328	-802.8659057617188	1351.305541992188	-524.4992065429688	-691.2836303710938	1497.998413085938	-330.5051574707031	-688.0557861328125	1482.685913085938	-221.2525482177734	-603.9928588867188	1355.064819335938	-200.2955169677734	-581.2528686523438	1140.426879882812	-192.7486572265625	-604.3787231445312	1127.244018554688	-277.5808715820312	-636.6065063476562	890.5222778320312	-148.5017242431641	-552.279541015625	889.3161010742188	-186.3529052734375	-562.6630249023438	1032.630981445312	-182.6182556152344	-625.876220703125	704.759521484375	-176.505615234375	-555.4229736328125	817.3591918945312	-180.3258666992188	-613.0860595703125	811.5391235351562	-137.4763488769531	-943.1520385742188	1505.94140625	-470.408447265625	-977.998291015625	1445.093017578125	-535.9532470703125	-1018.651306152344	1170.739990234375	-623.6068115234375	-952.3367919921875	1148.763793945312	-554.9500732421875	-1137.25048828125	949.1611328125	-532.6610717773438	-1113.041259765625	933.8416137695312	-617.2919921875	-1057.246948242188	1101.512939453125	-626.1973266601562	-1151.732666015625	760.7053833007812	-515.3687744140625	-1173.82080078125	857.7948608398438	-527.4898681640625	-1142.356567382812	852.8221435546875	-601.982177734375	-902.2033081054688	1685.53515625	-363.515625	-832.0390625	1698.16845703125	-157.2199249267578	-953.662353515625	1707.525756835938	-196.4772186279297	-770.093505859375	1684.478637695312	-325.9275207519531	-695.3861083984375	988.010498046875	-239.5726318359375	-1006.039428710938	1020.995910644531	-443.6424865722656	-1017.527770996094	1051.254028320312	-346.6326599121094	-817.9328002929688	1033.878295898438	-182.4897918701172	-813.5496826171875	490.3161010742188	-154.9339141845703	-779.7240600585938	635.9649658203125	-166.3554992675781	-625.8150634765625	204.99462890625	-492.5471496582031	-715.7542114257812	339.6483764648438	-308.9980163574219	-734.1669921875	60.67828369140625	-376.1021728515625	-749.9164428710938	90.22958374023438	-434.7730407714844	-635.3324584960938	125.4832763671875	-411.5937194824219	-663.2323608398438	242.1457977294922	-558.5482788085938	-1060.594604492188	523.289794921875	-376.11962890625	-1071.039916992188	797.5185546875	-390.744140625	-1022.970825195312	28.48608207702637	-466.5713195800781	-1063.298950195312	397.9172668457031	-361.68603515625	-1125.562377929688	48.63895034790039	-269.3020935058594	-1058.696533203125	50.71261596679688	-283.8630676269531	-1116.538208007812	27.97073173522949	-397.5048522949219	-938.0703125	36.50452041625977	-464.2571716308594	
